<svg id="Capa_1" enable-background="new 0 0 512 512" height="512" viewBox="0 0 512 512" width="512" xmlns="http://www.w3.org/2000/svg"><g><path d="m490.137 450.296h-468.273c-7.933 0-14.364-6.431-14.364-14.364v-359.864c0-7.933 6.431-14.364 14.364-14.364h468.273c7.933 0 14.364 6.431 14.364 14.364v359.865c-.001 7.933-6.432 14.363-14.364 14.363z" fill="#365e7d"/><path d="m490.137 61.704h-25.146c7.933 0 14.364 6.431 14.364 14.364v359.865c0 7.933-6.431 14.364-14.364 14.364h25.146c7.933 0 14.364-6.431 14.364-14.364v-359.865c-.001-7.933-6.432-14.364-14.364-14.364z" fill="#2b4d66"/><path d="m37.5 418.095v-324.189c0-1.216.986-2.202 2.202-2.202h432.596c1.216 0 2.202.986 2.202 2.202v324.189c0 1.216-.986 2.202-2.202 2.202h-432.596c-1.216 0-2.202-.986-2.202-2.202z" fill="#95d6a4"/><path d="m472.298 91.704h-21.857c1.216 0 2.202.986 2.202 2.202v324.189c0 1.216-.986 2.202-2.202 2.202h21.857c1.216 0 2.202-.986 2.202-2.202v-324.189c0-1.216-.986-2.202-2.202-2.202z" fill="#78c2a4"/><path d="m320.22 188.02h-128.439c-3.852 0-6.975-3.123-6.975-6.975v-48.47c0-3.852 3.123-6.975 6.975-6.975h128.439c3.852 0 6.975 3.123 6.975 6.975v48.47c0 3.852-3.123 6.975-6.975 6.975z" fill="#f9f6f9"/><path d="m320.22 125.6h-22.01c3.852 0 6.975 3.123 6.975 6.975v48.469c0 3.852-3.123 6.975-6.975 6.975h22.009c3.853 0 6.975-3.123 6.975-6.975v-48.469c.001-3.852-3.122-6.975-6.974-6.975z" fill="#dddaec"/><g><path d="m146.392 345.011h-58.439c-3.852 0-6.975-3.123-6.975-6.975v-48.47c0-3.852 3.123-6.975 6.975-6.975h58.439c3.852 0 6.975 3.123 6.975 6.975v48.47c0 3.852-3.123 6.975-6.975 6.975z" fill="#ffd064"/><path d="m146.392 282.591h-22.009c3.852 0 6.975 3.123 6.975 6.975v48.469c0 3.852-3.123 6.975-6.975 6.975h22.009c3.853 0 6.975-3.123 6.975-6.975v-48.469c0-3.852-3.123-6.975-6.975-6.975z" fill="#ebb044"/></g><g><path d="m285.22 345.011h-58.439c-3.852 0-6.975-3.123-6.975-6.975v-48.47c0-3.852 3.123-6.975 6.975-6.975h58.439c3.852 0 6.975 3.123 6.975 6.975v48.47c0 3.852-3.123 6.975-6.975 6.975z" fill="#61a2f9"/><path d="m285.22 282.591h-22.01c3.852 0 6.975 3.123 6.975 6.975v48.469c0 3.852-3.123 6.975-6.975 6.975h22.009c3.853 0 6.975-3.123 6.975-6.975v-48.469c.001-3.852-3.122-6.975-6.974-6.975z" fill="#5490f9"/></g><g><path d="m424.048 345.011h-58.439c-3.852 0-6.975-3.123-6.975-6.975v-48.47c0-3.852 3.123-6.975 6.975-6.975h58.439c3.852 0 6.975 3.123 6.975 6.975v48.47c0 3.852-3.123 6.975-6.975 6.975z" fill="#f9f6f9"/><path d="m424.048 282.591h-22.009c3.852 0 6.975 3.123 6.975 6.975v48.469c0 3.852-3.123 6.975-6.975 6.975h22.009c3.853 0 6.975-3.123 6.975-6.975v-48.469c0-3.852-3.123-6.975-6.975-6.975z" fill="#dddaec"/></g><g><path d="m189.786 427.796h282.512c5.35 0 9.702-4.352 9.702-9.701v-324.189c0-5.35-4.353-9.702-9.702-9.702h-432.596c-5.35 0-9.702 4.353-9.702 9.702v324.189c0 5.35 4.353 9.701 9.702 9.701h120.097c4.143 0 7.5-3.357 7.5-7.5s-3.357-7.5-7.5-7.5h-114.799v-313.592h422v313.593h-277.214c-4.143 0-7.5 3.357-7.5 7.5s3.358 7.499 7.5 7.499z"/><path d="m490.137 54.204h-40.692c-4.143 0-7.5 3.357-7.5 7.5s3.357 7.5 7.5 7.5h40.692c3.784 0 6.863 3.079 6.863 6.864v359.865c0 3.784-3.079 6.863-6.863 6.863h-468.273c-3.785 0-6.864-3.079-6.864-6.863v-359.865c0-3.785 3.079-6.864 6.864-6.864h397.594c4.143 0 7.5-3.357 7.5-7.5s-3.357-7.5-7.5-7.5h-397.594c-12.055 0-21.864 9.808-21.864 21.864v359.865c0 12.056 9.809 21.863 21.864 21.863h468.272c12.056 0 21.863-9.808 21.863-21.863v-359.865c.001-12.056-9.807-21.864-21.862-21.864z"/><path d="m160.867 338.036v-48.47c0-7.981-6.494-14.476-14.476-14.476h-58.438c-7.981 0-14.476 6.494-14.476 14.476v48.47c0 7.981 6.494 14.476 14.476 14.476h58.438c7.982-.001 14.476-6.495 14.476-14.476zm-15-.525h-57.39v-47.421h57.39z"/><path d="m299.695 338.036v-48.47c0-7.981-6.494-14.476-14.476-14.476h-58.438c-7.981 0-14.476 6.494-14.476 14.476v48.47c0 7.981 6.494 14.476 14.476 14.476h58.438c7.982-.001 14.476-6.495 14.476-14.476zm-15-.525h-57.39v-47.421h57.39z"/><path d="m438.523 338.036v-48.47c0-7.981-6.494-14.476-14.476-14.476h-58.438c-7.981 0-14.476 6.494-14.476 14.476v48.47c0 7.981 6.494 14.476 14.476 14.476h58.438c7.982-.001 14.476-6.495 14.476-14.476zm-15-.525h-57.39v-47.421h57.39z"/><path d="m248.5 256c0 4.143 3.357 7.5 7.5 7.5s7.5-3.357 7.5-7.5v-26.49h123.828v26.49c0 4.143 3.357 7.5 7.5 7.5s7.5-3.357 7.5-7.5v-33.99c0-4.143-3.357-7.5-7.5-7.5h-131.328v-18.99h56.72c7.981 0 14.476-6.494 14.476-14.476v-48.469c0-7.981-6.494-14.476-14.476-14.476h-128.439c-7.981 0-14.476 6.494-14.476 14.476v48.469c0 7.981 6.494 14.476 14.476 14.476h15.654c4.143 0 7.5-3.357 7.5-7.5s-3.357-7.5-7.5-7.5h-15.13v-47.42h127.39v47.42h-82.272c-4.143 0-7.5 3.357-7.5 7.5s3.357 7.5 7.5 7.5h11.077v18.99h-131.328c-4.143 0-7.5 3.357-7.5 7.5v33.99c0 4.143 3.357 7.5 7.5 7.5s7.5-3.357 7.5-7.5v-26.49h123.828z"/><path d="m97.198 366.795c-4.143 0-7.5 3.357-7.5 7.5s3.357 7.5 7.5 7.5h39.948c4.143 0 7.5-3.357 7.5-7.5s-3.357-7.5-7.5-7.5z"/><path d="m236.026 366.795c-4.143 0-7.5 3.357-7.5 7.5s3.357 7.5 7.5 7.5h39.947c4.143 0 7.5-3.357 7.5-7.5s-3.357-7.5-7.5-7.5z"/><path d="m374.854 366.795c-4.143 0-7.5 3.357-7.5 7.5s3.357 7.5 7.5 7.5h39.948c4.143 0 7.5-3.357 7.5-7.5s-3.357-7.5-7.5-7.5z"/><path d="m287.09 164.31c4.143 0 7.5-3.357 7.5-7.5s-3.357-7.5-7.5-7.5h-62.18c-4.143 0-7.5 3.357-7.5 7.5s3.357 7.5 7.5 7.5z"/></g></g></svg>