<?xml version="1.0" encoding="iso-8859-1"?>
<!-- Generator: Adobe Illustrator 19.0.0, SVG Export Plug-In . SVG Version: 6.00 Build 0)  -->
<svg version="1.1" id="Capa_1" xmlns="http://www.w3.org/2000/svg" xmlns:xlink="http://www.w3.org/1999/xlink" x="0px" y="0px"
	 viewBox="0 0 512.001 512.001" style="enable-background:new 0 0 512.001 512.001;" xml:space="preserve">
<g transform="translate(-1)">
	<g transform="translate(1 1)">
		<path style="fill:#2E7D32;" d="M408.007,153.198l-11.264,23.296c-5.744,11.843-10.042,24.335-12.8,37.205l-12.203,56.149
			c-1.071,5.243-4.836,9.529-9.899,11.264l-11.264,3.84c-4.924,1.749-8.641,5.851-9.899,10.923l-6.656,27.563
			c-0.242,1.066-0.614,2.098-1.109,3.072l-5.291,10.837c-1.936,4.001-5.518,6.961-9.813,8.107l-18.091,4.693
			c-6.783,1.769-11.496,7.923-11.435,14.933v10.837c-0.022,3.306-1.065,6.525-2.987,9.216l-18.859,25.856
			c-3.56,4.887-5.768,10.627-6.4,16.64l-5.888,54.699c-0.617,5.519-3.19,10.635-7.253,14.421
			c-4.728,4.311-11.105,6.339-17.455,5.551c-6.35-0.788-12.038-4.312-15.569-9.647c2.753-0.955,5.28-2.465,7.424-4.437
			c4.063-3.786,6.636-8.902,7.253-14.421l5.888-54.699c0.632-6.013,2.84-11.753,6.4-16.64l18.859-25.856
			c1.921-2.691,2.965-5.91,2.987-9.216v-10.837c-0.061-7.01,4.651-13.164,11.435-14.933l18.091-4.693
			c4.295-1.146,7.878-4.105,9.813-8.107l5.291-10.837c0.495-0.974,0.868-2.006,1.109-3.072l6.656-27.563
			c1.257-5.072,4.975-9.174,9.899-10.923l11.264-3.84c5.062-1.735,8.828-6.021,9.899-11.264l12.203-56.149
			c2.759-12.87,7.056-25.362,12.8-37.205l11.264-23.296c1.896-3.829,2.129-8.27,0.643-12.276c-1.486-4.006-4.559-7.221-8.494-8.887
			l-49.493-20.395l0.171-0.683h0.085c1.905-0.012,3.793,0.366,5.547,1.109l69.291,28.501c3.935,1.666,7.008,4.881,8.494,8.887
			C410.136,144.928,409.903,149.37,408.007,153.198z"/>
		<path style="fill:#4CAF50;" d="M382.407,144.665l-11.264,23.296c-5.744,11.843-10.041,24.335-12.8,37.205l-12.203,56.149
			c-1.07,5.243-4.836,9.529-9.899,11.264l-11.264,3.84c-4.924,1.749-8.641,5.851-9.899,10.923l-6.656,27.563
			c-0.242,1.066-0.614,2.098-1.109,3.072l-5.291,10.837c-1.936,4.001-5.518,6.961-9.813,8.107l-18.091,4.693
			c-6.784,1.769-11.496,7.923-11.435,14.933v10.837c-0.022,3.306-1.065,6.525-2.987,9.216l-18.859,25.856
			c-3.56,4.887-5.768,10.627-6.4,16.64l-5.888,54.699c-0.617,5.519-3.19,10.635-7.253,14.421c-2.144,1.972-4.671,3.483-7.424,4.437
			c-1.289-1.942-2.268-4.072-2.901-6.315l-22.187-75.947c-0.26-0.891-0.432-1.806-0.512-2.731l-17.067-158.379
			c-0.566-5.145-3.674-9.664-8.277-12.032l-20.907-10.837c-5.212-2.688-9.339-7.087-11.691-12.459l-25.771-59.733
			c-4.181-9.61-2.16-20.792,5.12-28.331l9.728-10.069c3.464-3.536,5.019-8.519,4.181-13.397l-4.267-26.709
			c-2.239-13.447,2.036-27.158,11.52-36.949l18.091-18.603c7.773-8.067,18.493-12.626,29.696-12.629h28.672
			c11.203,0.003,21.923,4.562,29.696,12.629L252.7,36.292l72.533,66.133l-0.171,0.683l49.493,20.395
			c3.935,1.666,7.008,4.881,8.494,8.887C384.536,136.395,384.303,140.836,382.407,144.665z"/>
		<path style="fill:#F5F5F5;" d="M281.628,101.401h34.133v119.467c0,9.426-7.641,17.067-17.067,17.067l0,0
			c-9.426,0-17.067-7.641-17.067-17.067V101.401z"/>
		<circle style="fill:#C52828;" cx="298.695" cy="58.734" r="51.2"/>
		<ellipse style="fill:#F44335;" cx="285.895" cy="58.734" rx="38.4" ry="51.2"/>
	</g>
	<g>
		<path d="M282.628,68.268c4.713,0,8.533-3.821,8.533-8.533c0.006-4.71,3.823-8.527,8.533-8.533c4.713,0,8.533-3.821,8.533-8.533
			s-3.82-8.533-8.533-8.533c-14.132,0.015-25.585,11.468-25.6,25.6C274.095,64.447,277.915,68.268,282.628,68.268z"/>
		<path d="M104.591,120.93c-9.756,9.983-12.467,24.893-6.85,37.671l25.808,59.825c3.142,7.137,8.635,12.982,15.562,16.563
			l21.017,10.896c2.008,1.065,3.36,3.054,3.613,5.313l17.05,158.221c0.124,1.48,0.399,2.943,0.821,4.367l22.175,75.896
			c3.745,13.137,15.707,22.229,29.367,22.321c7.626,0.004,14.975-2.857,20.592-8.017c5.563-5.179,9.08-12.186,9.908-19.742
			l5.883-54.654c0.461-4.543,2.122-8.882,4.813-12.571l18.933-25.95c2.935-4.137,4.525-9.078,4.554-14.15V366.08
			c-0.051-3.12,2.03-5.873,5.046-6.675l18.096-4.692c6.71-1.764,12.312-6.375,15.333-12.621l5.112-10.492
			c0.863-1.628,1.508-3.362,1.917-5.158l6.642-27.5c0.541-2.266,2.18-4.11,4.367-4.913l11.258-3.837
			c7.887-2.713,13.771-9.369,15.495-17.529l12.217-56.196c2.615-12.198,6.689-24.038,12.133-35.263l11.246-23.258
			c2.94-6.038,3.252-13.024,0.862-19.3c-2.326-6.121-7.079-11.008-13.133-13.505l-60.847-25.026
			c14.922-16.157,19.741-39.214,12.541-59.996S330.871,4.207,309.151,0.745c-21.719-3.462-43.581,5.309-56.885,22.822l-8.121-8.341
			C234.784,5.47,221.84-0.031,208.32,0.001h-28.675c-13.514-0.033-26.454,5.463-35.813,15.212l-18.088,18.6
			c-11.344,11.736-16.473,28.143-13.833,44.25l4.284,26.813c0.365,2.196-0.344,4.433-1.908,6.017L104.591,120.93z M308.228,119.468
			v102.4c0,4.713-3.82,8.533-8.533,8.533s-8.533-3.821-8.533-8.533v-102.4H308.228z M299.695,17.068
			c23.564,0,42.667,19.103,42.667,42.667s-19.103,42.667-42.667,42.667s-42.667-19.103-42.667-42.667
			C257.056,36.182,276.142,17.095,299.695,17.068z M116.832,132.822l9.7-10.042c5.341-5.47,7.754-13.159,6.496-20.7l-4.271-26.746
			c-1.782-10.774,1.636-21.756,9.217-29.617l18.104-18.617c6.155-6.424,14.67-10.05,23.567-10.033h28.675
			c8.904-0.015,17.427,3.617,23.583,10.05l11.77,12.088c-10.743,28.942,2.481,61.289,30.422,74.417v108.245
			c0,14.138,11.462,25.6,25.6,25.6s25.6-11.462,25.6-25.6V113.622c0.915-0.436,1.848-0.839,2.736-1.32
			c0.205,0.029,0.409,0.07,0.609,0.123l69.329,28.513c1.69,0.703,3.012,2.078,3.646,3.796c0.714,1.87,0.618,3.954-0.267,5.75
			l-11.267,23.3c-6.034,12.449-10.55,25.578-13.45,39.104l-12.217,56.213c-0.448,2.295-2.088,4.176-4.3,4.933l-11.346,3.867
			c-7.657,2.701-13.435,9.083-15.363,16.971l-6.646,27.513c-0.099,0.48-0.265,0.944-0.492,1.379l-5.292,10.833
			c-0.835,1.768-2.401,3.083-4.288,3.6l-18.046,4.679c-10.571,2.726-17.936,12.288-17.875,23.204v10.837
			c-0.014,1.499-0.482,2.959-1.342,4.188l-18.842,25.825c-4.445,6.108-7.208,13.276-8.013,20.787l-5.879,54.612
			c-0.378,3.483-1.985,6.717-4.533,9.121c-2.462,2.246-5.675,3.489-9.008,3.484c-6.064-0.073-11.35-4.144-12.971-9.987
			l-22.212-76.025c-0.102-0.383-0.168-0.775-0.196-1.171l-17.075-158.458c-0.863-7.972-5.686-14.972-12.829-18.617l-20.966-10.871
			c-3.437-1.784-6.162-4.687-7.725-8.229l-25.775-59.75C110.619,145.378,111.97,137.89,116.832,132.822z"/>
	</g>
</g>
<g>
</g>
<g>
</g>
<g>
</g>
<g>
</g>
<g>
</g>
<g>
</g>
<g>
</g>
<g>
</g>
<g>
</g>
<g>
</g>
<g>
</g>
<g>
</g>
<g>
</g>
<g>
</g>
<g>
</g>
</svg>
